<svg width="265" height="82" viewBox="0 0 265 82" fill="none" xmlns="http://www.w3.org/2000/svg">
<path d="M112.71 53.7349C110.964 53.7349 109.392 53.4356 107.996 52.8369C106.599 52.2133 105.501 51.3403 104.703 50.2178C103.905 49.0953 103.506 47.7858 103.506 46.2891H108.07C108.17 47.4116 108.607 48.3345 109.38 49.0579C110.178 49.7813 111.288 50.143 112.71 50.143C114.182 50.143 115.329 49.7938 116.152 49.0953C116.975 48.372 117.387 47.449 117.387 46.3265C117.387 45.4535 117.125 44.7426 116.601 44.1938C116.102 43.645 115.466 43.221 114.693 42.9217C113.945 42.6223 112.897 42.2981 111.55 41.9488C109.854 41.4999 108.469 41.0509 107.397 40.6019C106.349 40.1279 105.451 39.4046 104.703 38.4317C103.955 37.4589 103.58 36.1618 103.58 34.5404C103.58 33.0438 103.955 31.7342 104.703 30.6118C105.451 29.4893 106.499 28.6287 107.846 28.03C109.193 27.4314 110.752 27.1321 112.523 27.1321C115.042 27.1321 117.1 27.7681 118.697 29.0403C120.318 30.2875 121.216 32.0086 121.391 34.2037H116.676C116.601 33.2558 116.152 32.4451 115.329 31.7717C114.506 31.0982 113.421 30.7614 112.074 30.7614C110.852 30.7614 109.854 31.0732 109.081 31.6968C108.307 32.3204 107.921 33.2184 107.921 34.3908C107.921 35.189 108.158 35.85 108.632 36.3738C109.13 36.8727 109.754 37.2718 110.502 37.5712C111.251 37.8705 112.273 38.1948 113.571 38.544C115.292 39.0179 116.689 39.4919 117.761 39.9658C118.859 40.4397 119.782 41.1756 120.53 42.1733C121.303 43.1462 121.69 44.4557 121.69 46.102C121.69 47.4241 121.328 48.6713 120.605 49.8437C119.906 51.016 118.871 51.9639 117.499 52.6873C116.152 53.3857 114.556 53.7349 112.71 53.7349ZM134.88 43.1836L144.383 53.473H138.621L130.988 44.6054V53.473H126.723V25.7851H130.988V41.874L138.472 32.8567H144.383L134.88 43.1836ZM165.999 32.8567L153.352 63.1638H148.937L153.128 53.1363L145.009 32.8567H149.76L155.56 48.5715L161.584 32.8567H165.999ZM177.786 53.7349C176.04 53.7349 174.469 53.4356 173.072 52.8369C171.675 52.2133 170.577 51.3403 169.779 50.2178C168.981 49.0953 168.582 47.7858 168.582 46.2891H173.147C173.246 47.4116 173.683 48.3345 174.456 49.0579C175.254 49.7813 176.364 50.143 177.786 50.143C179.258 50.143 180.405 49.7938 181.229 49.0953C182.052 48.372 182.463 47.449 182.463 46.3265C182.463 45.4535 182.201 44.7426 181.678 44.1938C181.179 43.645 180.543 43.221 179.769 42.9217C179.021 42.6223 177.973 42.2981 176.626 41.9488C174.93 41.4999 173.546 41.0509 172.473 40.6019C171.426 40.1279 170.528 39.4046 169.779 38.4317C169.031 37.4589 168.657 36.1618 168.657 34.5404C168.657 33.0438 169.031 31.7342 169.779 30.6118C170.528 29.4893 171.575 28.6287 172.922 28.03C174.269 27.4314 175.828 27.1321 177.599 27.1321C180.119 27.1321 182.176 27.7681 183.773 29.0403C185.394 30.2875 186.292 32.0086 186.467 34.2037H181.752C181.678 33.2558 181.229 32.4451 180.405 31.7717C179.582 31.0982 178.497 30.7614 177.15 30.7614C175.928 30.7614 174.93 31.0732 174.157 31.6968C173.384 32.3204 172.997 33.2184 172.997 34.3908C172.997 35.189 173.234 35.85 173.708 36.3738C174.207 36.8727 174.83 37.2718 175.579 37.5712C176.327 37.8705 177.35 38.1948 178.647 38.544C180.368 39.0179 181.765 39.4919 182.837 39.9658C183.935 40.4397 184.858 41.1756 185.606 42.1733C186.38 43.1462 186.766 44.4557 186.766 46.102C186.766 47.4241 186.404 48.6713 185.681 49.8437C184.983 51.016 183.947 51.9639 182.576 52.6873C181.229 53.3857 179.632 53.7349 177.786 53.7349ZM196.776 36.3364V47.7484C196.776 48.5216 196.95 49.0829 197.299 49.4321C197.674 49.7564 198.297 49.9185 199.17 49.9185H201.789V53.473H198.422C196.501 53.473 195.029 53.024 194.007 52.126C192.984 51.2281 192.473 49.7688 192.473 47.7484V36.3364H190.041V32.8567H192.473V27.7307H196.776V32.8567H201.789V36.3364H196.776ZM214.663 53.8098C212.717 53.8098 210.959 53.3732 209.387 52.5002C207.816 51.6022 206.581 50.355 205.683 48.7586C204.785 47.1372 204.336 45.2664 204.336 43.1462C204.336 41.0509 204.798 39.1925 205.721 37.5712C206.644 35.9498 207.903 34.7026 209.5 33.8295C211.096 32.9565 212.88 32.52 214.85 32.52C216.821 32.52 218.604 32.9565 220.201 33.8295C221.797 34.7026 223.057 35.9498 223.98 37.5712C224.903 39.1925 225.364 41.0509 225.364 43.1462C225.364 45.2415 224.89 47.0998 223.942 48.7212C222.994 50.3425 221.697 51.6022 220.051 52.5002C218.43 53.3732 216.634 53.8098 214.663 53.8098ZM214.663 50.1056C215.761 50.1056 216.783 49.8437 217.731 49.3198C218.704 48.796 219.49 48.0103 220.088 46.9626C220.687 45.915 220.986 44.6428 220.986 43.1462C220.986 41.6495 220.7 40.3898 220.126 39.3671C219.552 38.3195 218.791 37.5337 217.843 37.0099C216.896 36.4861 215.873 36.2242 214.775 36.2242C213.678 36.2242 212.655 36.4861 211.707 37.0099C210.784 37.5337 210.048 38.3195 209.5 39.3671C208.951 40.3898 208.677 41.6495 208.677 43.1462C208.677 45.3662 209.238 47.0873 210.36 48.3096C211.508 49.5069 212.942 50.1056 214.663 50.1056ZM233.846 35.85C234.47 34.8024 235.293 33.9917 236.316 33.418C237.363 32.8193 238.598 32.52 240.02 32.52V36.9351H238.935C237.264 36.9351 235.991 37.3591 235.118 38.2072C234.27 39.0553 233.846 40.527 233.846 42.6223V53.473H229.581V32.8567H233.846V35.85ZM262.836 42.6598C262.836 43.433 262.786 44.1315 262.686 44.7551H246.934C247.059 46.4014 247.67 47.7234 248.767 48.7212C249.865 49.7189 251.212 50.2178 252.808 50.2178C255.103 50.2178 256.725 49.2575 257.672 47.3368H262.275C261.651 49.2325 260.516 50.7915 258.87 52.0138C257.248 53.2111 255.228 53.8098 252.808 53.8098C250.838 53.8098 249.067 53.3732 247.495 52.5002C245.949 51.6022 244.726 50.355 243.828 48.7586C242.955 47.1372 242.519 45.2664 242.519 43.1462C242.519 41.0259 242.943 39.1676 243.791 37.5712C244.664 35.9498 245.874 34.7026 247.42 33.8295C248.992 32.9565 250.788 32.52 252.808 32.52C254.754 32.52 256.488 32.944 258.009 33.7921C259.531 34.6402 260.716 35.8375 261.564 37.3841C262.412 38.9057 262.836 40.6642 262.836 42.6598ZM258.383 41.3128C258.358 39.7413 257.797 38.4816 256.7 37.5337C255.602 36.5859 254.243 36.1119 252.621 36.1119C251.15 36.1119 249.89 36.5859 248.842 37.5337C247.795 38.4567 247.171 39.7164 246.971 41.3128H258.383Z" fill="white"/>
<rect opacity="0.2" width="74.8323" height="74.8323" rx="37.4161" fill="white"/>
<rect x="32.7393" y="31.1801" width="49.8882" height="49.8882" rx="24.9441" fill="white"/>
</svg>
