<svg width="176" height="52" viewBox="0 0 176 52" fill="none" xmlns="http://www.w3.org/2000/svg">
<path d="M72.296 34.168C71.176 34.168 70.168 33.976 69.272 33.592C68.376 33.192 67.672 32.632 67.16 31.912C66.648 31.192 66.392 30.352 66.392 29.392H69.32C69.384 30.112 69.664 30.704 70.16 31.168C70.672 31.632 71.384 31.864 72.296 31.864C73.24 31.864 73.976 31.64 74.504 31.192C75.032 30.728 75.296 30.136 75.296 29.416C75.296 28.856 75.128 28.4 74.792 28.048C74.472 27.696 74.064 27.424 73.568 27.232C73.088 27.04 72.416 26.832 71.552 26.608C70.464 26.32 69.576 26.032 68.888 25.744C68.216 25.44 67.64 24.976 67.16 24.352C66.68 23.728 66.44 22.896 66.44 21.856C66.44 20.896 66.68 20.056 67.16 19.336C67.64 18.616 68.312 18.064 69.176 17.68C70.04 17.296 71.04 17.104 72.176 17.104C73.792 17.104 75.112 17.512 76.136 18.328C77.176 19.128 77.752 20.232 77.864 21.64H74.84C74.792 21.032 74.504 20.512 73.976 20.08C73.448 19.648 72.752 19.432 71.888 19.432C71.104 19.432 70.464 19.632 69.968 20.032C69.472 20.432 69.224 21.008 69.224 21.76C69.224 22.272 69.376 22.696 69.68 23.032C70 23.352 70.4 23.608 70.88 23.8C71.36 23.992 72.016 24.2 72.848 24.424C73.952 24.728 74.848 25.032 75.536 25.336C76.24 25.64 76.832 26.112 77.312 26.752C77.808 27.376 78.056 28.216 78.056 29.272C78.056 30.12 77.824 30.92 77.36 31.672C76.912 32.424 76.248 33.032 75.368 33.496C74.504 33.944 73.48 34.168 72.296 34.168ZM86.5164 27.4L92.6124 34H88.9164L84.0204 28.312V34H81.2844V16.24H84.0204V26.56L88.8204 20.776H92.6124L86.5164 27.4ZM106.477 20.776L98.3654 40.216H95.5334L98.2214 33.784L93.0134 20.776H96.0614L99.7814 30.856L103.645 20.776H106.477ZM120.273 34.168C119.153 34.168 118.145 33.976 117.249 33.592C116.353 33.192 115.649 32.632 115.137 31.912C114.625 31.192 114.369 30.352 114.369 29.392H117.297C117.361 30.112 117.641 30.704 118.137 31.168C118.649 31.632 119.361 31.864 120.273 31.864C121.217 31.864 121.953 31.64 122.481 31.192C123.009 30.728 123.273 30.136 123.273 29.416C123.273 28.856 123.105 28.4 122.769 28.048C122.449 27.696 122.041 27.424 121.545 27.232C121.065 27.04 120.393 26.832 119.529 26.608C118.441 26.32 117.553 26.032 116.865 25.744C116.193 25.44 115.617 24.976 115.137 24.352C114.657 23.728 114.417 22.896 114.417 21.856C114.417 20.896 114.657 20.056 115.137 19.336C115.617 18.616 116.289 18.064 117.153 17.68C118.017 17.296 119.017 17.104 120.153 17.104C121.769 17.104 123.089 17.512 124.113 18.328C125.153 19.128 125.729 20.232 125.841 21.64H122.817C122.769 21.032 122.481 20.512 121.953 20.08C121.425 19.648 120.729 19.432 119.865 19.432C119.081 19.432 118.441 19.632 117.945 20.032C117.449 20.432 117.201 21.008 117.201 21.76C117.201 22.272 117.353 22.696 117.657 23.032C117.977 23.352 118.377 23.608 118.857 23.8C119.337 23.992 119.993 24.2 120.825 24.424C121.929 24.728 122.825 25.032 123.513 25.336C124.217 25.64 124.809 26.112 125.289 26.752C125.785 27.376 126.033 28.216 126.033 29.272C126.033 30.12 125.801 30.92 125.337 31.672C124.889 32.424 124.225 33.032 123.345 33.496C122.481 33.944 121.457 34.168 120.273 34.168ZM132.453 23.008V30.328C132.453 30.824 132.565 31.184 132.789 31.408C133.029 31.616 133.429 31.72 133.989 31.72H135.669V34H133.509C132.277 34 131.333 33.712 130.677 33.136C130.021 32.56 129.693 31.624 129.693 30.328V23.008H128.133V20.776H129.693V17.488H132.453V20.776H135.669V23.008H132.453ZM143.927 34.216C142.679 34.216 141.551 33.936 140.543 33.376C139.535 32.8 138.743 32 138.167 30.976C137.591 29.936 137.303 28.736 137.303 27.376C137.303 26.032 137.599 24.84 138.191 23.8C138.783 22.76 139.591 21.96 140.615 21.4C141.639 20.84 142.783 20.56 144.047 20.56C145.311 20.56 146.455 20.84 147.479 21.4C148.503 21.96 149.311 22.76 149.903 23.8C150.495 24.84 150.791 26.032 150.791 27.376C150.791 28.72 150.487 29.912 149.879 30.952C149.271 31.992 148.439 32.8 147.383 33.376C146.343 33.936 145.191 34.216 143.927 34.216ZM143.927 31.84C144.631 31.84 145.287 31.672 145.895 31.336C146.519 31 147.023 30.496 147.407 29.824C147.791 29.152 147.983 28.336 147.983 27.376C147.983 26.416 147.799 25.608 147.431 24.952C147.063 24.28 146.575 23.776 145.967 23.44C145.359 23.104 144.703 22.936 143.999 22.936C143.295 22.936 142.639 23.104 142.031 23.44C141.439 23.776 140.967 24.28 140.615 24.952C140.263 25.608 140.087 26.416 140.087 27.376C140.087 28.8 140.447 29.904 141.167 30.688C141.903 31.456 142.823 31.84 143.927 31.84ZM156.231 22.696C156.631 22.024 157.159 21.504 157.815 21.136C158.487 20.752 159.279 20.56 160.191 20.56V23.392H159.495C158.423 23.392 157.607 23.664 157.047 24.208C156.503 24.752 156.231 25.696 156.231 27.04V34H153.495V20.776H156.231V22.696ZM174.826 27.064C174.826 27.56 174.794 28.008 174.73 28.408H164.626C164.706 29.464 165.098 30.312 165.802 30.952C166.506 31.592 167.37 31.912 168.394 31.912C169.866 31.912 170.906 31.296 171.514 30.064H174.466C174.066 31.28 173.338 32.28 172.282 33.064C171.242 33.832 169.946 34.216 168.394 34.216C167.13 34.216 165.994 33.936 164.986 33.376C163.994 32.8 163.21 32 162.634 30.976C162.074 29.936 161.794 28.736 161.794 27.376C161.794 26.016 162.066 24.824 162.61 23.8C163.17 22.76 163.946 21.96 164.938 21.4C165.946 20.84 167.098 20.56 168.394 20.56C169.642 20.56 170.754 20.832 171.73 21.376C172.706 21.92 173.466 22.688 174.01 23.68C174.554 24.656 174.826 25.784 174.826 27.064ZM171.97 26.2C171.954 25.192 171.594 24.384 170.89 23.776C170.186 23.168 169.314 22.864 168.274 22.864C167.33 22.864 166.522 23.168 165.85 23.776C165.178 24.368 164.778 25.176 164.65 26.2H171.97Z" fill="#FA7275"/>
<rect opacity="0.2" width="48" height="48" rx="24" fill="#FA7275"/>
<rect x="21" y="20" width="32" height="32" rx="16" fill="#FA7275"/>
</svg>
